<svg xmlns="http://www.w3.org/2000/svg" version="1.1" xmlns:xlink="http://www.w3.org/1999/xlink" xmlns:svgjs="http://svgjs.dev/svgjs" width="2000" height="1291" viewBox="0 0 2000 1291"><g transform="matrix(1,0,0,1,-1.3870229445221867,-1.2430049840646689)"><svg viewBox="0 0 384 248" data-background-color="#c56e33" preserveAspectRatio="xMidYMid meet" height="1291" width="2000" xmlns="http://www.w3.org/2000/svg" xmlns:xlink="http://www.w3.org/1999/xlink"><g id="tight-bounds" transform="matrix(1,0,0,1,0.26630840534826916,0.40922474893224603)"><svg viewBox="0 0 383.46738318930346 247.2" height="247.2" width="383.46738318930346"><g><svg viewBox="0 0 397.4975999999999 256.244496996742" height="247.2" width="383.46738318930346"><g><rect width="397.4975999999999" height="7.8484305044087455" x="0" y="140.82071091015774" fill="#fbf6f4" opacity="1" stroke-width="0" stroke="transparent" fill-opacity="1" class="rect-yte-0" data-fill-palette-color="primary" rx="1%" id="yte-0" data-palette-color="#fbf6f4"></rect></g><g transform="matrix(1,0,0,1,0.9887999999999693,169.21477100725954)"><svg viewBox="0 0 395.52 87.02972598948242" height="87.02972598948242" width="395.52"><g id="textblocktransform"><svg viewBox="0 0 395.52 87.02972598948242" height="87.02972598948242" width="395.52" id="textblock"><g><svg viewBox="0 0 395.52 87.02972598948242" height="87.02972598948242" width="395.52"><g transform="matrix(1,0,0,1,0,0)"><svg width="395.52" viewBox="2.98 -37.74 176.4 38.81" height="87.02972598948242" data-palette-color="#fbf6f4"><path d="M24.37-23.54L24.37-23.54Q23.93-22.61 23.17-21.78 22.41-20.95 21.73-20.21L21.73-20.21Q21.19-19.68 20.8-19.04 20.41-18.41 19.92-17.87L19.92-17.87Q19.53-17.43 19.14-17.07 18.75-16.7 18.41-16.26L18.41-16.26Q18.16-16.06 17.94-15.87 17.72-15.67 17.53-15.38L17.53-15.38Q18.26-13.82 19.26-12.55 20.26-11.28 21.34-10.01L21.34-10.01Q21.88-9.38 22.41-8.81 22.95-8.25 23.34-7.62L23.34-7.62Q23.68-6.88 24.05-6.52 24.41-6.15 24.71-5.76L24.71-5.76Q25-5.27 25.22-4.91 25.44-4.54 25.83-4.2L25.83-4.2Q25.83-3.96 26.12-3.74 26.42-3.52 26.51-3.27L26.51-3.27Q26.51-3.03 26.54-2.88 26.56-2.73 26.56-2.64L26.56-2.64Q26.42-2.25 26.05-1.98 25.68-1.71 25.39-1.42L25.39-1.42Q24.9-1.42 24.56-1.12 24.22-0.83 23.63-0.83L23.63-0.83Q23.39-0.63 23.24-0.42 23.1-0.2 22.85 0L22.85 0Q22.46 0 22.14 0.22 21.83 0.44 21.44 0.54L21.44 0.54Q20.95 0.24 20.65-0.22 20.36-0.68 19.87-0.93L19.87-0.93Q19.82-1.17 19.7-1.34 19.58-1.51 19.48-1.71L19.48-1.71Q18.65-2.64 17.92-3.66 17.19-4.69 16.46-5.71L16.46-5.71Q16.06-6.15 15.65-6.57 15.23-6.98 14.84-7.47L14.84-7.47Q14.6-7.76 14.36-8.15 14.11-8.54 13.82-8.89L13.82-8.89Q13.48-9.18 13.23-9.57 12.99-9.96 12.65-10.21L12.65-10.21Q12.21-9.96 11.87-9.57 11.52-9.18 11.08-8.89L11.08-8.89Q10.69-8.54 10.33-8.2 9.96-7.86 9.57-7.57L9.57-7.57Q9.47-6.45 9.47-5.4 9.47-4.35 9.47-3.32L9.47-3.32Q9.47-2.49 9.45-1.73 9.42-0.98 9.23-0.2L9.23-0.2Q8.98-0.15 8.76-0.46 8.54-0.78 8.3-0.83L8.3-0.83Q8.11-0.78 7.98-0.63 7.86-0.49 7.62-0.59L7.62-0.59Q7.37-0.34 6.88-0.15L6.88-0.15Q6.64-0.15 6.35-0.07 6.05 0 5.81 0L5.81 0Q5.42 0 5.27-0.1L5.27-0.1Q4.79 0.24 4.47 0.27 4.15 0.29 3.96 0.29L3.96 0.29Q3.86-0.05 3.76-0.37 3.66-0.68 3.61-1.07L3.61-1.07Q3.47-1.27 3.39-1.51 3.32-1.76 3.22-2L3.22-2Q3.27-2.15 3.27-2.34 3.27-2.54 3.27-2.73L3.27-2.73Q3.27-3.56 3.22-4.35 3.17-5.13 3.27-5.96L3.27-5.96Q3.17-6.2 3.13-6.45 3.08-6.69 3.08-6.93L3.08-6.93Q3.08-7.08 3.1-7.28 3.13-7.47 3.22-7.57L3.22-7.57Q3.08-8.2 3.05-8.91 3.03-9.62 3.03-10.25L3.03-10.25Q3.03-10.6 3.1-10.96 3.17-11.33 3.17-11.72L3.17-11.72Q3.17-12.55 3.08-13.33 2.98-14.11 2.98-14.89L2.98-14.89Q3.03-15.43 3.03-15.72L3.03-15.72Q3.03-16.02 3.08-16.31 3.13-16.6 3.03-16.89L3.03-16.89Q3.08-17.14 3.15-17.26 3.22-17.38 3.22-17.63L3.22-17.63Q3.22-18.26 3.25-18.87 3.27-19.48 3.27-20.17L3.27-20.17Q3.27-20.65 3.3-21.12 3.32-21.58 3.32-22.12L3.32-22.12Q3.32-22.56 3.39-22.95 3.47-23.34 3.52-23.73L3.52-23.73Q3.56-24.17 3.56-24.58 3.56-25 3.56-25.39L3.56-25.39Q3.56-26.42 3.56-27.47 3.56-28.52 3.47-29.54L3.47-29.54Q3.42-29.79 3.37-30.08 3.32-30.37 3.32-30.66L3.32-30.66Q3.22-31.59 3.17-32.57 3.13-33.54 2.98-34.52L2.98-34.52Q3.08-34.67 3.08-34.84 3.08-35.01 3.08-35.16L3.08-35.16Q3.08-35.4 3.08-35.62 3.08-35.84 3.03-36.08L3.03-36.08Q3.13-36.18 3.22-36.3 3.32-36.43 3.42-36.52L3.42-36.52Q3.71-36.52 4.03-36.5 4.35-36.47 4.59-36.28L4.59-36.28Q4.83-36.38 5.15-36.5 5.47-36.62 5.71-36.62L5.71-36.62Q6.1-36.62 6.3-36.43L6.3-36.43Q6.54-36.52 6.57-36.65 6.59-36.77 6.93-36.77L6.93-36.77Q7.57-36.82 7.84-36.82 8.11-36.82 8.35-36.87L8.35-36.87Q8.5-36.77 8.59-36.62 8.69-36.47 8.79-36.33L8.79-36.33Q9.86-35.94 10.52-35.23 11.18-34.52 12.01-34.03L12.01-34.03Q12.21-33.89 12.4-33.79 12.6-33.69 12.79-33.59L12.79-33.59Q13.23-33.3 13.67-32.96 14.11-32.62 14.6-32.37L14.6-32.37Q15.09-32.13 15.16-32.1 15.23-32.08 15.28-31.98L15.28-31.98Q16.36-31.59 17.21-30.93 18.07-30.27 19.04-29.74L19.04-29.74Q19.38-29.54 19.9-29.35 20.41-29.15 20.92-28.93 21.44-28.71 21.9-28.47 22.36-28.22 22.61-27.93L22.61-27.93Q23.14-27.39 23.56-27.17 23.97-26.95 24.37-26.66L24.37-26.66 24.41-25.34Q24.41-25 24.34-24.71 24.27-24.41 24.27-24.07L24.27-24.07Q24.27-23.83 24.37-23.54ZM17.68-24.8L17.68-24.8Q17.14-25.1 16.6-25.37 16.06-25.63 15.67-26.12L15.67-26.12Q15.33-26.22 14.45-26.59 13.57-26.95 12.67-27.37 11.77-27.78 11.01-28.1 10.25-28.42 10.16-28.42L10.16-28.42Q10.01-28.37 10.01-27.78 10.01-27.2 10.01-26.51 10.01-25.83 10.01-25.2 10.01-24.56 10.01-24.41L10.01-24.41Q10.01-23.49 9.96-22.61 9.91-21.73 9.81-20.8L9.81-20.8Q9.72-20.65 9.67-20.53 9.62-20.41 9.57-20.26L9.57-20.26Q9.47-19.58 9.47-18.46 9.47-17.33 9.47-16.65L9.47-16.65Q9.47-16.31 9.47-16.02 9.47-15.72 9.52-15.33L9.52-15.33Q9.77-15.33 9.86-15.45 9.96-15.58 10.21-15.67L10.21-15.67Q10.84-16.36 11.47-16.99 12.11-17.63 12.79-18.31L12.79-18.31Q13.09-18.6 13.38-18.95 13.67-19.29 14.01-19.53L14.01-19.53Q14.26-19.82 14.45-20.09 14.65-20.36 14.89-20.61L14.89-20.61Q15.58-21.34 16.31-22.05 17.04-22.75 17.53-23.63L17.53-23.63Q17.87-23.88 18.16-24.41L18.16-24.41Q17.82-24.46 17.68-24.8ZM46.19-6.84L46.19-6.84Q46.58-6.2 46.77-5.62 46.97-5.03 46.97-4.79L46.97-4.79Q46.97-4.44 46.85-4.22 46.73-4 46.53-3.76L46.53-3.76Q44.58-2.93 42.65-2.22 40.72-1.51 38.72-0.83L38.72-0.83Q38.23-0.68 37.77-0.51 37.3-0.34 36.77-0.24L36.77-0.24Q36.67-0.15 36.42-0.05 36.18 0.05 35.86 0.15 35.54 0.24 35.25 0.32 34.96 0.39 34.86 0.39L34.86 0.39Q34.76 0.15 34.67 0.1 34.57 0.05 34.47 0L34.47 0Q34.23 0 34.15 0.17 34.08 0.34 33.84 0.44L33.84 0.44Q33.59 0.44 33.4 0.46 33.2 0.49 33.05 0.39L33.05 0.39Q32.66 0.49 32.35 0.73 32.03 0.98 31.64 1.07L31.64 1.07Q30.91 0.88 30.73 0.9 30.56 0.93 30.37 0.98L30.37 0.98Q30.03 0.68 30.05 0.15 30.08-0.39 29.78-0.73L29.78-0.73Q29.78-1.37 29.68-1.44 29.59-1.51 29.59-1.61L29.59-1.61Q29.59-1.95 29.64-2.25 29.68-2.54 29.59-2.88L29.59-2.88Q29.78-3.71 29.73-4.49 29.68-5.27 29.78-6.05L29.78-6.05Q29.78-6.3 29.81-6.52 29.83-6.74 29.83-6.98L29.83-6.98Q29.83-7.71 29.93-7.89 30.03-8.06 30.03-8.3L30.03-8.3Q30.03-8.64 30-8.96 29.98-9.28 29.98-9.67L29.98-9.67Q29.98-10.35 30-11.01 30.03-11.67 30.03-12.4L30.03-12.4Q30.03-14.26 29.78-16.11 29.54-17.97 29.54-19.82L29.54-19.82Q29.54-22.07 29.29-24.27 29.05-26.46 29.05-28.71L29.05-28.71Q29.05-29.1 29.05-29.81 29.05-30.52 29.05-31.27 29.05-32.03 29.07-32.71 29.1-33.4 29.15-33.69L29.15-33.69Q29.15-33.74 29.44-33.84 29.73-33.94 29.83-33.94L29.83-33.94Q30.08-33.94 30.22-33.81 30.37-33.69 30.56-33.59L30.56-33.59Q31.44-33.69 31.61-33.76 31.78-33.84 31.88-33.84L31.88-33.84Q32.18-33.84 32.35-33.69 32.52-33.54 32.61-33.54L32.61-33.54Q33.44-33.74 33.52-33.59 33.59-33.45 33.84-33.45L33.84-33.45Q34.47-33.64 34.62-33.59 34.76-33.54 34.91-33.54L34.91-33.54Q35.15-33.54 35.45-33.72 35.74-33.89 35.98-33.98L35.98-33.98Q36.81-34.23 37.35-34.47L37.35-34.47Q38.08-34.91 38.45-35.06 38.82-35.21 39.21-35.4L39.21-35.4Q40.04-35.74 40.79-36.11 41.55-36.47 42.38-36.87L42.38-36.87Q42.53-36.87 42.7-36.89 42.87-36.91 42.97-37.01L42.97-37.01Q43.11-36.96 43.28-36.96 43.45-36.96 43.6-36.96L43.6-36.96Q44.09-36.77 44.24-36.72L44.24-36.72Q44.43-36.43 44.6-36.16 44.77-35.89 45.02-35.64L45.02-35.64Q45.26-35.21 45.41-35.21L45.41-35.21Q45.41-35.06 45.26-34.89 45.11-34.72 45.11-34.57L45.11-34.57Q45.51-33.89 45.75-33.3 45.99-32.71 45.99-32.47L45.99-32.47Q45.99-32.13 45.9-31.91 45.8-31.69 45.65-31.45L45.65-31.45Q43.8-30.57 41.92-29.71 40.04-28.86 38.08-28.03L38.08-28.03Q37.6-27.83 37.16-27.61 36.72-27.39 36.18-27.29L36.18-27.29Q36.08-27.2 35.74-27.12 35.4-27.05 35.2-27.05L35.2-27.05Q35.3-26.22 35.32-25.42 35.35-24.61 35.4-23.78L35.4-23.78Q35.45-23.1 35.57-22.34 35.69-21.58 35.79-20.85L35.79-20.85Q37.4-21.53 38.99-22.22 40.57-22.9 42.19-23.58L42.19-23.58Q42.48-23.54 42.8-23.49 43.11-23.44 43.41-23.34L43.41-23.34Q43.5-23.24 43.6-23.1 43.7-22.95 43.85-22.85L43.85-22.85Q43.8-22.61 44.16-22.12 44.53-21.63 44.53-21.39L44.53-21.39Q44.53-21 44.63-20.92 44.72-20.85 44.82-20.51L44.82-20.51Q44.87-20.02 44.82-19.97L44.82-19.97Q45.07-19.73 45.21-19.48 45.36-19.24 45.36-18.9L45.36-18.9Q44.68-18.07 43.99-17.8 43.31-17.53 42.62-17.24L42.62-17.24Q42.38-17.14 42.11-16.97 41.84-16.8 41.6-16.7L41.6-16.7Q41.21-16.55 40.84-16.43 40.48-16.31 40.09-16.11L40.09-16.11Q39.45-15.77 38.79-15.36 38.13-14.94 37.45-14.79L37.45-14.79Q36.91-14.65 36.74-14.48 36.57-14.31 36.18-14.01L36.18-14.01 36.18-12.7 36.18-10.25Q36.18-9.77 36.18-9.25 36.18-8.74 36.13-8.2L36.13-8.2Q36.03-7.71 36.03-7.37L36.03-7.37 36.03-6.59Q36.28-6.69 36.52-6.76 36.77-6.84 37.01-6.93L37.01-6.93Q37.2-6.98 37.38-6.98 37.55-6.98 37.74-7.08L37.74-7.08Q37.99-7.13 38.13-7.18 38.28-7.23 38.47-7.32L38.47-7.32Q39.21-7.71 39.6-7.84 39.99-7.96 40.38-8.11L40.38-8.11Q41.21-8.4 41.99-8.72 42.77-9.03 43.55-9.33L43.55-9.33Q44.04-9.23 44.24-9.47L44.24-9.47Q44.48-9.42 44.65-9.38 44.82-9.33 45.07-9.33L45.07-9.33Q45.65-8.79 45.8-8.5 45.94-8.2 46.19-7.96L46.19-7.96Q46.43-7.52 46.53-7.52L46.53-7.52Q46.53-7.42 46.38-7.2 46.24-6.98 46.19-6.84ZM59.71-13.33L59.71-13.33Q59.81-13.09 60.44-12.28 61.08-11.47 61.88-10.52 62.69-9.57 63.47-8.69 64.25-7.81 64.55-7.42L64.55-7.42Q65.47-6.05 66.45-4.74 67.43-3.42 68.31-2L68.31-2Q68.55-1.76 68.7-1.39 68.84-1.03 68.84-0.63L68.84-0.63Q68.84-0.2 68.62-0.17 68.4-0.15 68.16-0.05L68.16-0.05Q67.67 0.29 67.28 0.34 66.89 0.39 66.65 0.39L66.65 0.39Q66.11 0.39 65.47 0.37 64.84 0.34 64.4 0.44L64.4 0.44Q64.25 0.49 64.06 0.61 63.86 0.73 63.76 0.73L63.76 0.73Q63.37 0.73 63.2 0.61 63.03 0.49 62.74 0.39L62.74 0.39Q62.35-0.05 62.03-0.54 61.71-1.03 61.37-1.51L61.37-1.51Q61.08-1.86 60.74-2.12 60.4-2.39 60.1-2.78L60.1-2.78Q59.32-3.91 58.52-4.93 57.71-5.96 56.88-6.98L56.88-6.98Q56.49-7.52 56.03-8.01 55.56-8.5 55.17-8.98L55.17-8.98Q54.78-9.52 54.44-10.11 54.1-10.69 53.71-11.23L53.71-11.23Q53.41-11.72 52.88-12.43 52.34-13.13 51.75-13.87 51.17-14.6 50.56-15.26 49.95-15.92 49.51-16.26L49.51-16.26Q49.51-16.6 49.31-16.75 49.12-16.89 48.87-17.09L48.87-17.09Q48.77-17.33 48.63-17.55 48.48-17.77 48.48-18.07L48.48-18.07Q48.48-18.26 48.53-18.41 48.58-18.55 48.63-18.7L48.63-18.7Q48.73-18.9 48.75-19.07 48.77-19.24 48.87-19.43L48.87-19.43Q49.12-20.07 49.58-20.56 50.04-21.04 50.29-21.68L50.29-21.68Q50.34-21.88 50.34-22.05 50.34-22.22 50.43-22.41L50.43-22.41Q50.58-22.71 50.87-23 51.17-23.29 51.41-23.63L51.41-23.63Q51.66-24.07 51.9-24.51 52.14-24.95 52.39-25.39L52.39-25.39Q53.07-26.51 53.9-27.56 54.73-28.61 55.46-29.64L55.46-29.64Q56.15-30.62 56.73-31.57 57.32-32.52 58-33.5L58-33.5Q58.34-33.98 58.78-34.59 59.22-35.21 59.69-35.79 60.15-36.38 60.64-36.89 61.13-37.4 61.62-37.65L61.62-37.65Q62.45-37.74 62.69-37.38 62.93-37.01 63.37-37.01L63.37-37.01Q64.06-36.87 64.3-36.57 64.55-36.28 64.79-36.04L64.79-36.04Q65.42-36.04 65.86-35.79 66.3-35.55 66.74-35.06L66.74-35.06Q66.55-34.52 66.23-34.08 65.91-33.64 65.67-33.15L65.67-33.15Q65.28-33.01 65.11-32.67 64.94-32.32 64.59-32.08L64.59-32.08Q64.06-31.25 63.52-30.44 62.98-29.64 62.45-28.91L62.45-28.91Q62.2-28.61 61.88-28.44 61.57-28.27 61.37-27.93L61.37-27.93Q61.27-27.78 61.23-27.61 61.18-27.44 61.08-27.29L61.08-27.29Q60.49-26.37 59.76-25.49 59.03-24.61 58.49-23.63L58.49-23.63Q58.25-23.29 58.1-22.92 57.95-22.56 57.76-22.22L57.76-22.22Q57.56-21.92 57.2-21.39 56.83-20.85 56.46-20.29 56.1-19.73 55.83-19.21 55.56-18.7 55.56-18.36L55.56-18.36Q55.61-18.12 56.2-17.38 56.78-16.65 57.49-15.82 58.2-14.99 58.86-14.26 59.52-13.53 59.71-13.33ZM86.17-5.62L86.17-5.62Q86.08-5.32 86.08-5.08L86.08-5.08Q86.08-4.79 86.15-4.49 86.22-4.2 86.22-3.91L86.22-3.91Q86.13-3.03 86.08-2.83L86.08-2.83Q85.78-2.59 84.88-2.27 83.98-1.95 82.73-1.64 81.49-1.32 80.05-1 78.61-0.68 77.29-0.39 75.97-0.1 74.87 0.12 73.77 0.34 73.23 0.44L73.23 0.44Q72.99 0.49 72.77 0.56 72.55 0.63 72.31 0.73L72.31 0.73Q72.06 0.78 71.82 0.76 71.57 0.73 71.33 0.83L71.33 0.83Q71.18 0.83 71.06 0.68 70.94 0.54 70.84 0.44L70.84 0.44Q70.84 0.15 70.74 0 70.65-0.15 70.52-0.24 70.4-0.34 70.31-0.46 70.21-0.59 70.21-0.88L70.21-0.88Q70.11-1.27 69.94-1.49 69.77-1.71 69.77-1.9L69.77-1.9Q69.57-2.54 69.57-3.03L69.57-3.03Q69.57-3.27 69.62-3.42 69.67-3.56 69.77-3.71L69.77-3.71Q70.06-3.81 70.21-3.96 70.35-4.1 70.6-4.2L70.6-4.2Q70.89-4.35 71.43-4.47 71.97-4.59 72.6-4.74 73.23-4.88 73.82-5.03 74.41-5.18 74.8-5.32L74.8-5.32Q74.94-5.37 75.09-5.37 75.24-5.37 75.33-5.47L75.33-5.47Q75.24-6.25 75.21-7.03 75.19-7.81 75.09-8.54L75.09-8.54Q75.09-8.89 75.04-9.23 74.99-9.57 74.99-9.86L74.99-9.86 75.04-10.89Q75.04-12.74 74.89-14.6 74.75-16.46 74.75-18.31L74.75-18.31 74.75-19.97Q74.75-20.36 74.72-20.7 74.7-21.04 74.7-21.44L74.7-21.44Q74.7-22.36 74.72-23.22 74.75-24.07 74.75-25L74.75-25 74.75-29.49Q73.67-29.74 72.75-29.47 71.82-29.2 70.84-29.1L70.84-29.1Q70.5-29.44 70.45-29.83L70.45-29.83Q70.06-30.37 69.91-30.52 69.77-30.66 69.57-31.35L69.57-31.35Q69.23-32.03 69.01-32.2 68.79-32.37 68.79-32.76L68.79-32.76Q68.79-33.01 68.91-33.11 69.04-33.2 69.13-33.45L69.13-33.45Q69.57-33.64 69.65-33.72 69.72-33.79 69.82-33.84L69.82-33.84Q70.31-34.18 70.94-34.33 71.57-34.47 72.16-34.67L72.16-34.67Q72.65-34.81 73.09-35.01 73.53-35.21 74.06-35.35L74.06-35.35Q74.7-35.55 75.33-35.74 75.97-35.94 76.56-36.08L76.56-36.08Q76.95-36.18 77.31-36.16 77.68-36.13 78.07-36.38L78.07-36.38Q78.7-36.28 79.41-36.4 80.12-36.52 80.95-36.72 81.78-36.91 82.56-37.06 83.34-37.21 83.73-37.3L83.73-37.3Q83.98-37.21 84.07-37.06 84.17-36.91 84.37-36.87L84.37-36.87Q84.42-36.72 84.47-36.5 84.51-36.28 84.66-36.18L84.66-36.18Q84.66-35.64 84.9-35.4L84.9-35.4Q84.86-34.91 85.08-34.3 85.3-33.69 85.3-33.15L85.3-33.15Q85.05-32.42 84.49-32.23 83.93-32.03 83.27-31.88 82.61-31.74 81.97-31.62 81.34-31.49 80.95-31.35L80.95-31.35Q80.95-30.66 80.97-29.93 81-29.2 81-28.47L81-28.47Q81-27.78 80.97-27.1 80.95-26.42 80.95-25.73L80.95-25.73Q80.95-24.71 80.93-23.63 80.9-22.56 80.9-21.48L80.9-21.48Q80.9-19.97 80.95-18.46 81-16.94 81.1-15.43L81.1-15.43Q81.14-15.19 81.14-14.7L81.14-14.7Q81.14-12.74 81.22-10.86 81.29-8.98 81.49-6.98L81.49-6.98Q82.12-6.93 82.46-7.18L82.46-7.18Q82.71-7.18 82.93-7.28 83.15-7.37 83.34-7.47L83.34-7.47Q83.64-7.52 84.15-7.64 84.66-7.76 84.81-7.76L84.81-7.76Q85.25-7.71 85.34-7.76L85.34-7.76Q85.49-7.47 85.78-7.32L85.78-7.32Q85.88-6.88 85.95-6.47 86.03-6.05 86.17-5.62ZM94.86-35.5L94.86-35.5Q95.06-35.55 95.2-35.64 95.35-35.74 95.55-35.74L95.55-35.74Q95.69-35.69 95.77-35.55 95.84-35.4 95.99-35.3L95.99-35.3Q96.13-35.4 96.25-35.5 96.38-35.6 96.52-35.64L96.52-35.64Q97.01-35.5 97.06-35.16L97.06-35.16Q97.3-35.06 97.5-34.94 97.7-34.81 97.94-34.77L97.94-34.77Q98.04-34.57 98.18-34.47 98.33-34.38 98.53-34.18L98.53-34.18Q99.01-34.08 99.82-33.64 100.62-33.2 101.11-32.96L101.11-32.96Q101.6-32.71 102.09-32.47 102.58-32.23 103.02-31.93L103.02-31.93Q103.46-31.69 103.9-31.37 104.34-31.05 104.82-30.86L104.82-30.86Q105.26-30.32 105.95-30.18 106.63-30.03 107.17-29.64L107.17-29.64Q107.61-29.39 108-29.13 108.39-28.86 108.78-28.61L108.78-28.61Q108.93-28.37 109.15-28.22 109.37-28.08 109.56-27.83L109.56-27.83Q110.54-27.29 110.68-27L110.68-27Q110.83-26.9 111.12-26.71 111.42-26.51 111.71-26.29 112-26.07 112.25-25.85 112.49-25.63 112.54-25.44L112.54-25.44Q112.34-25 112.34-24.73 112.34-24.46 112.15-24.27L112.15-24.27Q112.44-23.88 112.44-23.54L112.44-23.54Q112.2-22.95 111.61-22.56L111.61-22.56Q111.46-22.17 111.15-21.95 110.83-21.73 110.73-21.34L110.73-21.34Q110.34-21.09 110.27-20.95 110.2-20.8 110.1-20.65L110.1-20.65Q109.17-19.68 108.36-18.97 107.56-18.26 106.87-17.43L106.87-17.43Q106.39-17.19 106.04-16.82 105.7-16.46 105.41-16.02L105.41-16.02Q105.02-15.63 104.65-15.26 104.29-14.89 103.9-14.55L103.9-14.55Q103.8-14.36 103.58-14.23 103.36-14.11 103.26-13.87L103.26-13.87Q102.72-13.62 102.38-13.18 102.04-12.74 101.55-12.45L101.55-12.45 101.21-11.96Q101.06-11.87 100.8-11.65 100.53-11.43 100.26-11.16 99.99-10.89 99.79-10.64 99.6-10.4 99.55-10.25L99.55-10.25Q99.4-10.21 99.09-9.96 98.77-9.72 98.45-9.42 98.13-9.13 97.87-8.84 97.6-8.54 97.55-8.45L97.55-8.45 97.06-8.11Q97.11-6.79 97.13-5.44 97.16-4.1 97.16-2.78L97.16-2.78 97.16-1.12 96.82-0.68Q96.57-0.68 96.43-0.78 96.28-0.88 96.08-0.88L96.08-0.88Q95.89-0.88 95.72-0.68 95.55-0.49 95.4-0.39L95.4-0.39Q95.06-0.34 94.84-0.22 94.62-0.1 94.37 0L94.37 0Q94.08-0.15 93.79-0.15L93.79-0.15Q93.15 0 93.18-0.1 93.2-0.2 92.96-0.2L92.96-0.2Q92.57 0.2 92.47 0.2L92.47 0.2Q92.28 0.2 92.1 0.24 91.93 0.29 91.74 0.29L91.74 0.29Q91.54-0.1 91.42-0.51 91.3-0.93 90.96-1.32L90.96-1.32Q91.1-1.81 90.91-2L90.91-2Q91.2-2.54 91.15-3.22 91.1-3.91 91.1-4.49L91.1-4.49Q91.1-4.83 91.13-5.15 91.15-5.47 91.15-5.76L91.15-5.76Q91.15-6.35 91.05-6.96 90.96-7.57 90.96-8.2L90.96-8.2Q90.96-9.67 91.05-11.16 91.15-12.65 91.15-14.11L91.15-14.11Q91.15-14.94 91.08-15.82 91.01-16.7 91.01-17.53L91.01-17.53Q91.01-18.07 91.05-18.53 91.1-18.99 91.15-19.43L91.15-19.43Q91.15-21.68 91.23-23.75 91.3-25.83 91.3-27.88L91.3-27.88Q91.3-28.56 91.27-29.17 91.25-29.79 91.25-30.47L91.25-30.47Q91.25-30.81 91.3-31.15 91.35-31.49 91.35-31.84L91.35-31.84Q91.49-33.35 91.49-34.86L91.49-34.86 91.45-35.64Q91.64-35.94 92.03-35.94L92.03-35.94Q92.57-35.94 92.86-35.6L92.86-35.6Q93.2-35.64 93.52-35.72 93.84-35.79 94.13-35.79L94.13-35.79Q94.57-35.79 94.86-35.5ZM97.84-27.88L97.74-27.73Q97.74-27.49 97.7-27.37 97.65-27.25 97.6-27.15L97.6-27.15Q97.6-27 97.62-26.83 97.65-26.66 97.65-26.46L97.65-26.46Q97.65-25.34 97.62-24.24 97.6-23.14 97.6-22.07L97.6-22.07 97.5-19.48Q97.5-19.24 97.55-18.95 97.6-18.65 97.6-18.41L97.6-18.41Q97.6-18.16 97.55-17.92 97.5-17.68 97.5-17.43L97.5-17.43Q97.5-16.8 97.65-16.16L97.65-16.16Q97.89-16.26 97.99-16.48 98.09-16.7 98.23-16.85L98.23-16.85Q99.36-17.87 100.33-18.99 101.31-20.12 102.33-21.24L102.33-21.24Q103.21-22.17 103.85-22.75 104.48-23.34 104.82-24.17L104.82-24.17Q103.99-24.71 103.12-25.27 102.24-25.83 101.26-26.22L101.26-26.22Q101.21-26.32 100.99-26.46 100.77-26.61 100.53-26.73 100.28-26.86 100.04-26.95 99.79-27.05 99.7-27.05L99.7-27.05Q99.26-27.44 98.77-27.54L98.77-27.54Q98.43-27.54 98.18-27.66 97.94-27.78 97.84-27.88L97.84-27.88ZM132.17-6.84L132.17-6.84Q132.56-6.2 132.75-5.62 132.95-5.03 132.95-4.79L132.95-4.79Q132.95-4.44 132.82-4.22 132.7-4 132.51-3.76L132.51-3.76Q130.55-2.93 128.63-2.22 126.7-1.51 124.69-0.83L124.69-0.83Q124.21-0.68 123.74-0.51 123.28-0.34 122.74-0.24L122.74-0.24Q122.64-0.15 122.4-0.05 122.16 0.05 121.84 0.15 121.52 0.24 121.23 0.32 120.93 0.39 120.84 0.39L120.84 0.39Q120.74 0.15 120.64 0.1 120.54 0.05 120.45 0L120.45 0Q120.2 0 120.13 0.17 120.06 0.34 119.81 0.44L119.81 0.44Q119.57 0.44 119.37 0.46 119.18 0.49 119.03 0.39L119.03 0.39Q118.64 0.49 118.32 0.73 118.01 0.98 117.61 1.07L117.61 1.07Q116.88 0.88 116.71 0.9 116.54 0.93 116.34 0.98L116.34 0.98Q116 0.68 116.03 0.15 116.05-0.39 115.76-0.73L115.76-0.73Q115.76-1.37 115.66-1.44 115.56-1.51 115.56-1.61L115.56-1.61Q115.56-1.95 115.61-2.25 115.66-2.54 115.56-2.88L115.56-2.88Q115.76-3.71 115.71-4.49 115.66-5.27 115.76-6.05L115.76-6.05Q115.76-6.3 115.78-6.52 115.81-6.74 115.81-6.98L115.81-6.98Q115.81-7.71 115.91-7.89 116-8.06 116-8.3L116-8.3Q116-8.64 115.98-8.96 115.95-9.28 115.95-9.67L115.95-9.67Q115.95-10.35 115.98-11.01 116-11.67 116-12.4L116-12.4Q116-14.26 115.76-16.11 115.51-17.97 115.51-19.82L115.51-19.82Q115.51-22.07 115.27-24.27 115.03-26.46 115.03-28.71L115.03-28.71Q115.03-29.1 115.03-29.81 115.03-30.52 115.03-31.27 115.03-32.03 115.05-32.71 115.08-33.4 115.12-33.69L115.12-33.69Q115.12-33.74 115.42-33.84 115.71-33.94 115.81-33.94L115.81-33.94Q116.05-33.94 116.2-33.81 116.34-33.69 116.54-33.59L116.54-33.59Q117.42-33.69 117.59-33.76 117.76-33.84 117.86-33.84L117.86-33.84Q118.15-33.84 118.32-33.69 118.49-33.54 118.59-33.54L118.59-33.54Q119.42-33.74 119.49-33.59 119.57-33.45 119.81-33.45L119.81-33.45Q120.45-33.64 120.59-33.59 120.74-33.54 120.89-33.54L120.89-33.54Q121.13-33.54 121.42-33.72 121.72-33.89 121.96-33.98L121.96-33.98Q122.79-34.23 123.33-34.47L123.33-34.47Q124.06-34.91 124.43-35.06 124.79-35.21 125.18-35.4L125.18-35.4Q126.01-35.74 126.77-36.11 127.53-36.47 128.36-36.87L128.36-36.87Q128.5-36.87 128.67-36.89 128.84-36.91 128.94-37.01L128.94-37.01Q129.09-36.96 129.26-36.96 129.43-36.96 129.58-36.96L129.58-36.96Q130.07-36.77 130.21-36.72L130.21-36.72Q130.41-36.43 130.58-36.16 130.75-35.89 130.99-35.64L130.99-35.64Q131.24-35.21 131.38-35.21L131.38-35.21Q131.38-35.06 131.24-34.89 131.09-34.72 131.09-34.57L131.09-34.57Q131.48-33.89 131.73-33.3 131.97-32.71 131.97-32.47L131.97-32.47Q131.97-32.13 131.87-31.91 131.77-31.69 131.63-31.45L131.63-31.45Q129.77-30.57 127.89-29.71 126.01-28.86 124.06-28.03L124.06-28.03Q123.57-27.83 123.13-27.61 122.69-27.39 122.16-27.29L122.16-27.29Q122.06-27.2 121.72-27.12 121.37-27.05 121.18-27.05L121.18-27.05Q121.28-26.22 121.3-25.42 121.33-24.61 121.37-23.78L121.37-23.78Q121.42-23.1 121.55-22.34 121.67-21.58 121.76-20.85L121.76-20.85Q123.38-21.53 124.96-22.22 126.55-22.9 128.16-23.58L128.16-23.58Q128.45-23.54 128.77-23.49 129.09-23.44 129.38-23.34L129.38-23.34Q129.48-23.24 129.58-23.1 129.68-22.95 129.82-22.85L129.82-22.85Q129.77-22.61 130.14-22.12 130.51-21.63 130.51-21.39L130.51-21.39Q130.51-21 130.6-20.92 130.7-20.85 130.8-20.51L130.8-20.51Q130.85-20.02 130.8-19.97L130.8-19.97Q131.04-19.73 131.19-19.48 131.34-19.24 131.34-18.9L131.34-18.9Q130.65-18.07 129.97-17.8 129.28-17.53 128.6-17.24L128.6-17.24Q128.36-17.14 128.09-16.97 127.82-16.8 127.58-16.7L127.58-16.7Q127.18-16.55 126.82-16.43 126.45-16.31 126.06-16.11L126.06-16.11Q125.43-15.77 124.77-15.36 124.11-14.94 123.43-14.79L123.43-14.79Q122.89-14.65 122.72-14.48 122.55-14.31 122.16-14.01L122.16-14.01 122.16-12.7 122.16-10.25Q122.16-9.77 122.16-9.25 122.16-8.74 122.11-8.2L122.11-8.2Q122.01-7.71 122.01-7.37L122.01-7.37 122.01-6.59Q122.25-6.69 122.5-6.76 122.74-6.84 122.99-6.93L122.99-6.93Q123.18-6.98 123.35-6.98 123.52-6.98 123.72-7.08L123.72-7.08Q123.96-7.13 124.11-7.18 124.26-7.23 124.45-7.32L124.45-7.32Q125.18-7.71 125.57-7.84 125.96-7.96 126.35-8.11L126.35-8.11Q127.18-8.4 127.97-8.72 128.75-9.03 129.53-9.33L129.53-9.33Q130.02-9.23 130.21-9.47L130.21-9.47Q130.46-9.42 130.63-9.38 130.8-9.33 131.04-9.33L131.04-9.33Q131.63-8.79 131.77-8.5 131.92-8.2 132.17-7.96L132.17-7.96Q132.41-7.52 132.51-7.52L132.51-7.52Q132.51-7.42 132.36-7.2 132.21-6.98 132.17-6.84ZM153.74-35.25L153.74-35.25Q154.14-34.67 154.4-34.06 154.67-33.45 154.67-33.2L154.67-33.2Q154.67-32.86 154.57-32.64 154.48-32.42 154.28-32.13L154.28-32.13Q152.43-31.3 150.55-30.42 148.67-29.54 146.71-28.76L146.71-28.76Q146.23-28.56 145.79-28.37 145.35-28.17 144.81-27.98L144.81-27.98Q144.71-27.88 144.39-27.81 144.08-27.73 143.83-27.73L143.83-27.73Q143.93-26.76 143.95-25.73 143.98-24.71 144.03-23.68L144.03-23.68Q144.03-23.39 144.13-23.12 144.22-22.85 144.22-22.56L144.22-22.56Q144.32-21.63 144.32-20.75 144.32-19.87 144.42-18.95L144.42-18.95Q146.23-19.73 148.01-20.53 149.79-21.34 151.6-22.12L151.6-22.12Q151.89-22.07 152.23-22.02 152.57-21.97 152.87-21.83L152.87-21.83Q152.96-21.73 153.06-21.58 153.16-21.44 153.31-21.34L153.31-21.34Q153.31-21.09 153.62-20.63 153.94-20.17 153.94-19.63L153.94-19.63Q153.94-19.53 154.09-19.31 154.23-19.09 154.28-18.99L154.28-18.99Q154.28-18.51 154.23-18.46L154.23-18.46Q154.57-18.21 154.7-17.82 154.82-17.43 154.82-17.04L154.82-17.04Q153.94-16.06 153.09-15.72 152.23-15.38 151.35-14.99L151.35-14.99Q151.11-14.84 150.82-14.7 150.52-14.55 150.23-14.4L150.23-14.4Q149.84-14.26 149.47-14.14 149.11-14.01 148.72-13.82L148.72-13.82Q148.13-13.48 147.4-13.04 146.66-12.6 146.08-12.5L146.08-12.5Q145.69-12.4 145.42-12.38 145.15-12.35 144.81-12.11L144.81-12.11Q144.76-11.52 144.78-10.96 144.81-10.4 144.81-9.86L144.81-9.86Q144.81-9.28 144.74-8.72 144.66-8.15 144.66-7.57L144.66-7.57Q144.66-6.59 144.57-5.64 144.47-4.69 144.47-3.76L144.47-3.76Q144.47-3.17 144.52-2.61 144.57-2.05 144.57-1.51L144.57-1.51Q144.57-1.22 144.47-0.98 144.37-0.73 144.27-0.49L144.27-0.49Q143.59-0.39 143.44-0.51 143.3-0.63 143.1-0.73L143.1-0.73Q142.86-0.73 142.78-0.54 142.71-0.34 142.47-0.24L142.47-0.24Q142.27-0.29 142.05-0.27 141.83-0.24 141.68-0.34L141.68-0.34Q141.29-0.2 140.98 0 140.66 0.2 140.27 0.29L140.27 0.29Q139.54 0.2 139.36 0.22 139.19 0.24 139 0.29L139 0.29Q138.66-0.05 138.68-0.56 138.71-1.07 138.41-1.46L138.41-1.46Q138.41-1.95 138.32-2.08 138.22-2.2 138.22-2.29L138.22-2.29Q138.22-2.44 138.24-2.61 138.27-2.78 138.27-2.98L138.27-2.98Q138.27-3.42 138.22-3.66L138.22-3.66Q138.27-3.96 138.32-4.57 138.36-5.18 138.41-5.83 138.46-6.49 138.46-7.13 138.46-7.76 138.46-8.15L138.46-8.15Q138.46-8.4 138.56-8.57 138.66-8.74 138.66-8.98L138.66-8.98Q138.66-9.38 138.63-9.69 138.61-10.01 138.61-10.35L138.61-10.35Q138.61-11.04 138.63-11.72 138.66-12.4 138.66-13.09L138.66-13.09Q138.66-15.19 138.44-17.21 138.22-19.24 138.22-21.29L138.22-21.29Q138.22-22.41 138.12-23.75 138.02-25.1 137.88-26.22L137.88-26.22Q137.88-26.46 137.8-26.64 137.73-26.81 137.73-27L137.73-27Q137.68-27.59 137.68-28.2 137.68-28.81 137.68-29.44L137.68-29.44Q137.68-29.83 137.68-30.54 137.68-31.25 137.68-32.01 137.68-32.76 137.7-33.45 137.73-34.13 137.78-34.42L137.78-34.42Q137.78-34.47 138.07-34.59 138.36-34.72 138.46-34.72L138.46-34.72Q138.71-34.72 138.85-34.57 139-34.42 139.19-34.28L139.19-34.28Q139.39-34.42 139.61-34.42 139.83-34.42 140.07-34.42L140.07-34.42Q140.81-34.57 140.98-34.4 141.15-34.23 141.24-34.23L141.24-34.23Q141.39-34.23 141.49-34.38 141.59-34.52 141.73-34.52L141.73-34.52Q142.12-34.52 142.2-34.33 142.27-34.13 142.47-34.13L142.47-34.13Q142.66-34.13 142.76-34.28 142.86-34.42 142.95-34.42L142.95-34.42Q143.1-34.42 143.25-34.35 143.39-34.28 143.54-34.28L143.54-34.28Q143.78-34.28 144.08-34.45 144.37-34.62 144.61-34.72L144.61-34.72Q145-34.81 145.32-34.96 145.64-35.11 145.98-35.21L145.98-35.21Q146.71-35.64 147.08-35.77 147.45-35.89 147.84-36.08L147.84-36.08Q148.67-36.47 149.42-36.84 150.18-37.21 151.01-37.55L151.01-37.55Q151.45-37.55 151.6-37.74L151.6-37.74Q151.94-37.6 152.48-37.7L152.48-37.7Q153.06-37.16 153.23-36.87 153.4-36.57 153.65-36.33L153.65-36.33Q153.94-35.94 154.04-35.94L154.04-35.94Q154.04-35.79 153.89-35.6 153.74-35.4 153.74-35.25ZM179.38-34.57L179.38-34.57Q178.84-33.59 178.16-32.28 177.47-30.96 177.08-29.98L177.08-29.98Q176.94-29.64 176.81-29.32 176.69-29 176.55-28.66L176.55-28.66Q176.3-27.93 175.93-27.27 175.57-26.61 175.28-25.88L175.28-25.88Q174.84-24.9 174.37-23.9 173.91-22.9 173.47-21.83L173.47-21.83Q172.98-20.85 172.71-20.14 172.44-19.43 172.15-18.7 171.86-17.97 171.64-17.26 171.42-16.55 171.27-15.97L171.27-15.97Q170.83-15.19 170.54-14.79L170.54-14.79Q170.44-13.92 170.34-13.04 170.25-12.16 170.25-11.23L170.25-11.23Q170.25-10.79 170.32-10.38 170.39-9.96 170.44-9.52L170.44-9.52Q170.49-8.89 170.47-8.28 170.44-7.67 170.49-7.03L170.49-7.03Q170.54-5.81 170.61-4.61 170.69-3.42 170.73-2.15L170.73-2.15Q170.78-1.27 170.66-0.66 170.54-0.05 170.59 0.59L170.59 0.59Q170.44 0.68 170.27 0.73 170.1 0.78 169.95 0.88L169.95 0.88Q169.42 0.88 169.25 0.85 169.07 0.83 168.93 0.93L168.93 0.93Q168.49 0.63 168.44 0.66 168.39 0.68 168.34 0.68L168.34 0.68Q167.76 0.49 167.71 0.39 167.66 0.29 167.51 0.2L167.51 0.2Q166.97 0.2 166.63 0.34L166.63 0.34Q166.49 0.24 166.39 0.15 166.29 0.05 166.14-0.05L166.14-0.05Q165.71-0.1 165.41-0.17 165.12-0.24 164.92-0.34L164.92-0.34Q164.78-0.73 164.61-1.03 164.44-1.32 164.44-1.81L164.44-1.81Q164.44-2.2 164.53-2.54 164.63-2.88 164.68-3.27L164.68-3.27Q164.68-3.52 164.66-3.71 164.63-3.91 164.63-4.15L164.63-4.15Q164.63-4.39 164.73-4.79L164.73-4.79Q164.58-5.91 164.61-7.15 164.63-8.4 164.63-9.52L164.63-9.52Q164.63-10.64 164.44-11.62L164.44-11.62Q164.48-12.26 164.44-12.52 164.39-12.79 164.39-13.09L164.39-13.09Q164.39-13.33 164.44-13.6 164.48-13.87 164.48-14.11L164.48-14.11Q164.48-14.16 164.41-14.62 164.34-15.09 164.24-15.6 164.14-16.11 164.05-16.58 163.95-17.04 163.95-17.14L163.95-17.14Q163.46-18.02 163.21-18.8 162.97-19.58 162.68-20.12L162.68-20.12Q162.48-20.51 162.29-20.9 162.09-21.29 161.95-21.73L161.95-21.73Q161.85-21.97 161.77-22.27 161.7-22.56 161.6-22.8L161.6-22.8Q161.41-23.19 161.24-23.66 161.07-24.12 160.82-24.41L160.82-24.41Q160.63-24.85 160.46-25.22 160.29-25.59 160.29-25.93L160.29-25.93Q160.14-26.51 159.82-26.98 159.5-27.44 159.26-27.93L159.26-27.93Q159.11-28.22 159.04-28.47 158.97-28.71 158.87-28.96L158.87-28.96Q158.77-29.15 158.6-29.44 158.43-29.74 158.23-29.88L158.23-29.88Q158.14-30.32 157.89-30.66 157.65-31.01 157.55-31.45L157.55-31.45Q157.31-31.79 157.01-32.13L157.01-32.13Q156.82-32.86 156.48-33.47 156.13-34.08 155.84-34.77L155.84-34.77Q156.04-35.79 156.96-36.04L156.96-36.04Q157.45-36.62 157.55-36.67 157.65-36.72 157.99-36.72L157.99-36.72Q158.28-36.96 158.58-37.13 158.87-37.3 159.26-37.21L159.26-37.21Q159.31-37.4 159.53-37.55 159.75-37.7 159.94-37.7L159.94-37.7Q160.24-37.7 160.46-37.4 160.68-37.11 160.92-36.96L160.92-36.96Q161.31-36.28 161.73-35.64 162.14-35.01 162.43-34.33L162.43-34.33Q162.78-33.64 163.04-32.96 163.31-32.28 163.85-31.64L163.85-31.64Q164.09-30.66 164.61-29.81 165.12-28.96 165.46-27.98L165.46-27.98Q165.71-27.39 166.02-26.83 166.34-26.27 166.58-25.63L166.58-25.63Q166.73-25.34 166.83-25.05 166.93-24.76 167.02-24.46L167.02-24.46Q167.12-24.22 167.22-23.83 167.32-23.44 167.46-23.19L167.46-23.19Q167.8-23.54 168.05-24.07L168.05-24.07Q168.39-24.76 168.76-25.37 169.12-25.98 169.42-26.66L169.42-26.66Q169.81-27.29 169.98-27.98 170.15-28.66 170.39-29.35L170.39-29.35Q170.49-29.59 170.61-29.83 170.73-30.08 170.83-30.37L170.83-30.37Q170.98-30.66 171.08-30.96 171.17-31.25 171.27-31.54L171.27-31.54Q171.61-32.47 172.03-33.37 172.44-34.28 172.88-35.21L172.88-35.21Q172.93-35.35 173.1-35.64 173.27-35.94 173.49-36.25 173.71-36.57 173.91-36.82 174.1-37.06 174.25-37.16L174.25-37.16Q174.35-37.26 174.57-37.28 174.79-37.3 174.93-37.35L174.93-37.35Q175.37-37.35 175.57-37.11L175.57-37.11Q176.15-36.87 176.45-36.77 176.74-36.67 176.89-36.33L176.89-36.33Q177.62-35.84 177.99-35.77 178.35-35.69 178.55-35.35L178.55-35.35Q179.08-35.01 179.18-34.86 179.28-34.72 179.38-34.57Z" opacity="1" transform="matrix(1,0,0,1,0,0)" fill="#fbf6f4" class="wordmark-text-0" data-fill-palette-color="primary" id="text-0"></path></svg></g></svg></g></svg></g></svg></g><g transform="matrix(1,0,0,1,151.08982127425378,0)"><svg viewBox="0 0 95.31795745149239 120.2750813174647" height="120.2750813174647" width="95.31795745149239"><g><svg xmlns="http://www.w3.org/2000/svg" xmlns:xlink="http://www.w3.org/1999/xlink" version="1.1" x="0" y="0" viewBox="2.49 -0.000011202740700726784 19.020000000000003 24.0000112027407" style="enable-background:new 0 0 24 24;" xml:space="preserve" id="icon-0" width="95.31795745149239" height="120.2750813174647" class="icon-icon-0" data-fill-palette-color="accent"><g fill="#fbf6f4" data-fill-palette-color="accent"><g fill="#fbf6f4" data-fill-palette-color="accent"><path d="M21.346 6.149L21.343 6.146C21.321 6.125 21.306 6.096 21.28 6.079 20.232 4.914 20.253 1.945 21.344 0.854A0.499 0.499 0 0 0 20.99 0H5.71C3.994 0 2.49 1.402 2.49 3V21C2.49 22.738 3.634 24 5.211 24H20.99A0.5 0.5 0 0 0 21.49 23.5V6.599C21.497 6.566 21.51 6.535 21.51 6.5 21.51 6.358 21.44 6.24 21.346 6.149M19.391 11.252C19.195 12.156 18.727 13.064 18.17 13.621A2.98 2.98 0 0 1 14.281 13.911L12.602 15.403 18.345 21.146A0.5 0.5 0 0 1 17.637 21.853L11.853 16.069 5.323 21.873A0.5 0.5 0 1 1 4.659 21.125L11.145 15.36 11.051 15.266A4.3 4.3 0 0 0 7.99 13.998 0.5 0.5 0 0 1 7.636 13.852L4.636 10.852A0.5 0.5 0 0 1 5.343 10.145L8.2 13.002A5.3 5.3 0 0 1 9.838 13.347 5.3 5.3 0 0 1 9.493 11.709L6.635 8.852A0.5 0.5 0 0 1 7.342 8.145L10.342 11.145A0.5 0.5 0 0 1 10.488 11.499 4.3 4.3 0 0 0 11.756 14.56L11.891 14.695 13.576 13.197A2.97 2.97 0 0 1 13.046 11.499C13.046 10.698 13.358 9.944 13.924 9.378 14.69 8.612 16.06 8.057 17.182 8.057 17.887 8.057 18.473 8.269 18.874 8.671 19.445 9.24 19.628 10.157 19.391 11.252M5.49 4H19.533C19.587 4.72 19.752 5.419 20.039 6H5.711C4.548 6 3.49 5.047 3.49 4V3C3.49 1.953 4.549 1 5.711 1H20.04C19.752 1.581 19.588 2.28 19.534 3H5.49A0.5 0.5 0 0 0 5.49 4" fill="#fbf6f4" data-fill-palette-color="accent"></path></g></g></svg></g></svg></g><g></g></svg></g><defs></defs></svg><rect width="383.46738318930346" height="247.2" fill="none" stroke="none" visibility="hidden"></rect></g></svg></g></svg>